<?xml version="1.0" encoding="UTF-8"?>
<svg id="Layer_1" xmlns="http://www.w3.org/2000/svg" version="1.1" viewBox="0 0 1096.9 681">
  <!-- Generator: Adobe Illustrator 29.5.1, SVG Export Plug-In . SVG Version: 2.1.0 Build 141)  -->
  <defs>
    <style>
      .st0 {
        fill: #fff;
      }
    </style>
  </defs>
  <path class="st0" d="M750.6,0c-57.1,1.1-110.6,16.1-157.3,41.7-42.9,23.5-94.8,22.1-137.8-1.3-35.2-19.2-79.9-30-132.9-30H30.7C13.8,10.5,0,24.3,0,41.3v29.5c0,17,13.8,30.7,30.7,30.7h292.7c75.3,0,119.9,38.5,119.9,100.7s-44.6,92.3-119.9,92.3H30.7c-17,0-30.7,13.8-30.7,30.7v30.5c0,17,13.8,30.7,30.7,30.7h292.7c75.3,0,119.9,29.3,119.9,92.3s-44.6,100.7-119.9,100.7H30.7c-17,0-30.7,13.8-30.7,30.7v29.5c0,17,13.8,30.7,30.7,30.7h291.8c53.5,0,98.5-10.9,133.8-30.4,42.9-23.7,94.7-23.7,137.8-.3,48.3,26.3,103.9,41.3,163.1,41.3,190.7,0,343.7-156.4,339.6-348.1C1092.7,144.6,938.9-3.5,750.6,0ZM757.2,577.7c-128.7,0-229.3-102.4-229.3-237.2s100.7-237.2,229.3-237.2,229.3,102.4,229.3,237.2-101.5,237.2-229.3,237.2Z"/>
</svg>