<?xml version="1.0" encoding="UTF-8"?>
<svg id="Layer_1" xmlns="http://www.w3.org/2000/svg" version="1.1" viewBox="0 0 2000 2000">
  <!-- Generator: Adobe Illustrator 29.5.1, SVG Export Plug-In . SVG Version: 2.1.0 Build 141)  -->
  <defs>
    <style>
      .st0 {
        fill: #fff;
      }

      .st1 {
        fill: #08083d;
      }
    </style>
  </defs>
  <rect class="st1" x="-17.4" y="-17.4" width="2034.8" height="2034.8"/>
  <path class="st0" d="M1249.3,604c-65,1.2-125.8,18.3-179,47.4-48.8,26.8-107.9,25.2-156.8-1.5-40.1-21.8-90.9-34.1-151.2-34.1h-332c-19.3,0-35,15.7-35,35v33.6c0,19.3,15.7,35,35,35h333c85.6,0,136.4,43.8,136.4,114.5s-50.8,105-136.4,105h-333c-19.3,0-35,15.7-35,35v34.7c0,19.3,15.7,35,35,35h333c85.6,0,136.4,33.3,136.4,105s-50.8,114.5-136.4,114.5h-333c-19.3,0-35,15.7-35,35v33.6c0,19.3,15.7,35,35,35h332c60.8,0,112-12.5,152.2-34.6,48.8-26.9,107.8-27,156.8-.4,55,29.9,118.2,46.9,185.5,46.9,217,0,391-178,386.3-396.1-4.6-214.2-179.6-382.7-393.9-378.7ZM1256.8,1261.2c-146.4,0-260.9-116.5-260.9-269.9s114.5-269.9,260.9-269.9,260.9,116.5,260.9,269.9-115.5,269.9-260.9,269.9Z"/>
</svg>