<?xml version="1.0" encoding="UTF-8"?>
<svg id="Layer_1" xmlns="http://www.w3.org/2000/svg" version="1.1" viewBox="0 0 2000 681">
  <!-- Generator: Adobe Illustrator 29.5.1, SVG Export Plug-In . SVG Version: 2.1.0 Build 141)  -->
  <defs>
    <style>
      .st0 {
        fill: #fff;
      }
    </style>
  </defs>
  <path class="st0" d="M750.6,0c-57.1,1.1-110.6,16.1-157.3,41.7-42.9,23.5-94.8,22.1-137.8-1.3-35.2-19.2-79.9-30-132.9-30H30.7C13.8,10.5,0,24.3,0,41.3v29.5c0,17,13.8,30.7,30.7,30.7h292.7c75.3,0,119.9,38.5,119.9,100.7s-44.6,92.3-119.9,92.3H30.7c-17,0-30.7,13.8-30.7,30.7v30.5c0,17,13.8,30.7,30.7,30.7h292.7c75.3,0,119.9,29.3,119.9,92.3s-44.6,100.7-119.9,100.7H30.7c-17,0-30.7,13.8-30.7,30.7v29.5c0,17,13.8,30.7,30.7,30.7h291.8c53.5,0,98.5-10.9,133.8-30.4,42.9-23.7,94.7-23.7,137.8-.3,48.3,26.3,103.9,41.3,163.1,41.3,190.7,0,343.7-156.4,339.6-348.1C1092.7,144.6,938.9-3.5,750.6,0ZM757.2,577.7c-128.7,0-229.3-102.4-229.3-237.2s100.7-237.2,229.3-237.2,229.3,102.4,229.3,237.2-101.5,237.2-229.3,237.2Z"/>
  <path class="st0" d="M1966.9,576.9h-325.6c-5,0-11.4-3.3-14.2-7.5-6.6-10.1-4.9-20.3.8-26.9h0s327.9-359.4,327.9-359.4c38.9-42.6,36.5-109.7-7.2-147.5-17.8-15.4-41.1-25-67.7-25h-773c-18.3,0-33.1,14.8-33.1,33.1v27.5c0,18.3,14.8,33.1,33.1,33.1h108.1c18.3,0,33.1,14.8,33.1,33.1v500.2c0,18.3,14.8,33.1,33.1,33.1h43.3c18.3,0,33.1-14.8,33.1-33.1V137.2c0-18.3,14.8-33.1,33.1-33.1h460.6c5,0,11.3,3.3,14.1,7.5,6.5,10,4.8,20.2-.9,26.8l-326.6,357.3c-39.5,43.2-37.1,111.1,7.2,149.4,18,15.6,41.6,25.3,68.6,25.3h352.4c18.3,0,33.1-14.8,33.1-33.1v-27.5c0-18.3-14.8-33.1-33.1-33.1Z"/>
</svg>